<svg xmlns="http://www.w3.org/2000/svg" xmlns:xlink="http://www.w3.org/1999/xlink" xmlns:lucid="lucid" width="620" height="1253.05"><g transform="translate(-720 -38)" lucid:page-tab-id="0_0"><path d="M740 58h160v120H740z" stroke="#000" stroke-width="2" fill="#fff"/><use xlink:href="#a" transform="matrix(1,0,0,1,745,63) translate(52 37)"/><use xlink:href="#b" transform="matrix(1,0,0,1,745,63) translate(11.124999999999993 58.6)"/><use xlink:href="#c" transform="matrix(1,0,0,1,745,63) translate(52.55 80.20000000000002)"/><path d="M820 508l80 60-80 60-80-60z" stroke="#000" stroke-width="2" fill="#fff"/><use xlink:href="#d" transform="matrix(1,0,0,1,745,513) translate(46.55 58.6)"/><path d="M740 208h160v120H740z" stroke="#000" stroke-width="2" fill="#fff"/><use xlink:href="#e" transform="matrix(1,0,0,1,745,213) translate(40.55 47.8)"/><use xlink:href="#f" transform="matrix(1,0,0,1,745,213) translate(4.549999999999997 69.4)"/><path d="M740 358h160v120H740z" stroke="#000" stroke-width="2" fill="#fff"/><use xlink:href="#g" transform="matrix(1,0,0,1,745,363) translate(25.099999999999994 47.8)"/><use xlink:href="#h" transform="matrix(1,0,0,1,745,363) translate(101 47.8)"/><use xlink:href="#i" transform="matrix(1,0,0,1,745,363) translate(49.05 69.4)"/><path d="M1040 508l80 60-80 60-80-60z" stroke="#000" stroke-width="2" fill="#fff"/><use xlink:href="#j" transform="matrix(1,0,0,1,965,513) translate(6.599999999999994 58.6)"/><path d="M902.67 568h37.16" stroke="#000" stroke-width="2" fill="none"/><path d="M902.7 569h-2.37l1.34-1-1.34-1h2.36z"/><path d="M955.1 568l-14.27 4.64v-9.28z" stroke="#000" stroke-width="2"/><use xlink:href="#k" transform="matrix(1,0,0,1,903.8833333333333,542.4000000000001) translate(0 14.4)"/><path d="M1040 505.75V418H919.5" stroke="#000" stroke-width="2" fill="none"/><path d="M1041 507.5l-1-.75-1 .75v-1.78h2z"/><path d="M904.24 418l14.26-4.64v9.28z" stroke="#000" stroke-width="2"/><use xlink:href="#k" transform="matrix(1,0,0,1,981.7883691485506,392.4) translate(0 14.4)"/><path d="M1160 508h160v120h-160z" stroke="#000" stroke-width="2" fill="#fff"/><use xlink:href="#l" transform="matrix(1,0,0,1,1165,513) translate(36.099999999999994 47.8)"/><use xlink:href="#m" transform="matrix(1,0,0,1,1165,513) translate(35.025 69.4)"/><path d="M1160 658h160v120h-160z" stroke="#000" stroke-width="2" fill="#fff"/><use xlink:href="#n" transform="matrix(1,0,0,1,1165,663) translate(39.55 47.8)"/><use xlink:href="#m" transform="matrix(1,0,0,1,1165,663) translate(35.025 69.4)"/><path d="M820 480v8.25" stroke="#000" stroke-width="2" fill="none"/><path d="M821 480.03h-2V479h2z"/><path d="M820 503.5l-4.64-14.25h9.28z" stroke="#000" stroke-width="2"/><path d="M1122.67 568h17.83" stroke="#000" stroke-width="2" fill="none"/><path d="M1122.7 569h-2.37l1.34-1-1.34-1h2.36z"/><path d="M1155.76 568l-14.26 4.64v-9.28z" stroke="#000" stroke-width="2"/><use xlink:href="#o" transform="matrix(1,0,0,1,1129.8333333333335,542.4000000000001) translate(0 14.4)"/><path d="M740 658h160v120H740z" stroke="#000" stroke-width="2" fill="#fff"/><use xlink:href="#g" transform="matrix(1,0,0,1,745,663) translate(25.099999999999994 47.8)"/><use xlink:href="#h" transform="matrix(1,0,0,1,745,663) translate(101 47.8)"/><use xlink:href="#p" transform="matrix(1,0,0,1,745,663) translate(20.799999999999997 69.4)"/><use xlink:href="#q" transform="matrix(1,0,0,1,745,663) translate(76.30000000000001 69.4)"/><path d="M820 630.25v8.25" stroke="#000" stroke-width="2" fill="none"/><path d="M821 630.28h-2v-1.78l1 .75 1-.75z"/><path d="M820 653.76l-4.64-14.26h9.28z" stroke="#000" stroke-width="2"/><use xlink:href="#o" transform="matrix(1,0,0,1,828,632.325) translate(0 14.4)"/><path d="M820 808l80 60-80 60-80-60z" stroke="#000" stroke-width="2" fill="#fff"/><use xlink:href="#d" transform="matrix(1,0,0,1,745,813) translate(46.55 58.6)"/><path d="M820 780v8.25" stroke="#000" stroke-width="2" fill="none"/><path d="M821 780.03h-2V779h2z"/><path d="M820 803.5l-4.64-14.25h9.28z" stroke="#000" stroke-width="2"/><path d="M1040 808l80 60-80 60-80-60z" stroke="#000" stroke-width="2" fill="#fff"/><use xlink:href="#j" transform="matrix(1,0,0,1,965,813) translate(6.599999999999994 58.6)"/><path d="M902.67 868h37.16" stroke="#000" stroke-width="2" fill="none"/><path d="M902.7 869h-2.37l1.34-1-1.34-1h2.36z"/><path d="M955.1 868l-14.27 4.64v-9.28z" stroke="#000" stroke-width="2"/><use xlink:href="#k" transform="matrix(1,0,0,1,908.5499999999998,842.4000000000001) translate(0 14.4)"/><path d="M1040 805.75V718H919.5" stroke="#000" stroke-width="2" fill="none"/><path d="M1041 807.5l-1-.75-1 .75v-1.78h2z"/><path d="M904.24 718l14.26-4.64v9.28z" stroke="#000" stroke-width="2"/><use xlink:href="#k" transform="matrix(1,0,0,1,981.7883691485506,692.4) translate(0 14.4)"/><path d="M1141.33 869h-18.66v-2h16.66V728.8h2zm-.83-301h.83v139.2h-2V567h1.17z"/><path d="M1122.7 869h-2.37l1.34-1-1.34-1h2.36zM1155.76 568l-14.26 4.64v-9.28z"/><path d="M1159 568l-18.5 6v-12zm-16.5 3.26l10.03-3.26-10.03-3.26z"/><use xlink:href="#o" transform="matrix(1,0,0,1,1129.8333333333335,707.2000000000002) translate(0 14.4)"/><path d="M740 958h160v120H740z" stroke="#000" stroke-width="2" fill="#fff"/><use xlink:href="#r" transform="matrix(1,0,0,1,745,963) translate(2.049999999999997 58.6)"/><use xlink:href="#s" transform="matrix(1,0,0,1,745,963) translate(83 58.6)"/><path d="M820 930.25v8.25" stroke="#000" stroke-width="2" fill="none"/><path d="M821 930.28h-2v-1.78l1 .75 1-.75z"/><path d="M820 953.76l-4.64-14.26h9.28z" stroke="#000" stroke-width="2"/><use xlink:href="#o" transform="matrix(1,0,0,1,828,932.325) translate(0 14.4)"/><path d="M820 1108l80 60-80 60-80-60z" stroke="#000" stroke-width="2" fill="#fff"/><use xlink:href="#d" transform="matrix(1,0,0,1,745,1113) translate(46.55 58.6)"/><path d="M820 1080v8.25" stroke="#000" stroke-width="2" fill="none"/><path d="M821 1080.03h-2V1079h2z"/><path d="M820 1103.5l-4.64-14.25h9.28z" stroke="#000" stroke-width="2"/><path d="M1040 1108l80 60-80 60-80-60z" stroke="#000" stroke-width="2" fill="#fff"/><use xlink:href="#j" transform="matrix(1,0,0,1,965,1113) translate(6.599999999999994 58.6)"/><path d="M902.67 1168h37.16" stroke="#000" stroke-width="2" fill="none"/><path d="M902.7 1169h-2.37l1.34-1-1.34-1h2.36z"/><path d="M955.1 1168l-14.27 4.64v-9.28z" stroke="#000" stroke-width="2"/><use xlink:href="#k" transform="matrix(1,0,0,1,908.55,1142.4) translate(0 14.4)"/><path d="M1040 1105.75V1018H919.5" stroke="#000" stroke-width="2" fill="none"/><path d="M1041 1107.5l-1-.75-1 .75v-1.78h2z"/><path d="M904.24 1018l14.26-4.64v9.28z" stroke="#000" stroke-width="2"/><use xlink:href="#k" transform="matrix(1,0,0,1,968.6416580717623,992.4) translate(0 14.4)"/><path d="M1240 630v8.5" stroke="#000" stroke-width="2" fill="none"/><path d="M1241 630.03h-2V629h2z"/><path d="M1240 653.76l-4.64-14.26h9.28z" stroke="#000" stroke-width="2"/><path d="M820 180v8.5" stroke="#000" stroke-width="2" fill="none"/><path d="M821 180.03h-2V179h2z"/><path d="M820 203.76l-4.64-14.26h9.28z" stroke="#000" stroke-width="2"/><path d="M820 330v8.5" stroke="#000" stroke-width="2" fill="none"/><path d="M821 330.03h-2V329h2z"/><path d="M820 353.76l-4.64-14.26h9.28z" stroke="#000" stroke-width="2"/><path d="M1141.33 1169h-18.66v-2h16.66v-128.87h2zm0-152.47h-2V886.5h2z"/><path d="M1122.7 1169h-2.37l1.34-1-1.34-1h2.36zM1144.97 885.5h-9.27l4.63-14.26z"/><path d="M1146.35 886.5h-12.03l6-18.5zm-9.28-2h6.52l-3.27-10.03z"/><g><use xlink:href="#o" transform="matrix(1,0,0,1,1129.8333333333335,1016.5333333333335) translate(0 14.4)"/></g><path d="M821 1268.25h179.3v2H819v-40h2zm320.33 2H1021.3v-2h118.03v-81.75h2z"/><path d="M821 1230.28h-2v-1.78l1 .75 1-.75zM1144.97 1185.5h-9.27l4.63-14.26z"/><path d="M1146.35 1186.5h-12.03l6-18.5zm-9.28-2h6.52l-3.27-10.03z"/><g><use xlink:href="#o" transform="matrix(1,0,0,1,1000.2916666666667,1258.45) translate(0 14.4)"/></g><defs><path d="M185-189c-5-48-123-54-124 2 14 75 158 14 163 119 3 78-121 87-175 55-17-10-28-26-33-46l33-7c5 56 141 63 141-1 0-78-155-14-162-118-5-82 145-84 179-34 5 7 8 16 11 25" id="t"/><path d="M100-194c63 0 86 42 84 106H49c0 40 14 67 53 68 26 1 43-12 49-29l28 8c-11 28-37 45-77 45C44 4 14-33 15-96c1-61 26-98 85-98zm52 81c6-60-76-77-97-28-3 7-6 17-6 28h103" id="u"/><path d="M59-47c-2 24 18 29 38 22v24C64 9 27 4 27-40v-127H5v-23h24l9-43h21v43h35v23H59v120" id="v"/><path d="M9 0v-24l116-142H16v-24h144v24L44-24h123V0H9" id="w"/><g id="a"><use transform="matrix(0.05,0,0,0.05,0,0)" xlink:href="#t"/><use transform="matrix(0.05,0,0,0.05,12,0)" xlink:href="#u"/><use transform="matrix(0.05,0,0,0.05,22,0)" xlink:href="#v"/><use transform="matrix(0.05,0,0,0.05,27,0)" xlink:href="#w"/><use transform="matrix(0.05,0,0,0.05,36,0)" xlink:href="#u"/></g><path d="M30-248c87 1 191-15 191 75 0 78-77 80-158 76V0H30v-248zm33 125c57 0 124 11 124-50 0-59-68-47-124-48v98" id="x"/><path d="M266 0h-40l-56-210L115 0H75L2-248h35L96-30l15-64 43-154h32l59 218 59-218h35" id="y"/><path d="M233-177c-1 41-23 64-60 70L243 0h-38l-65-103H63V0H30v-248c88 3 205-21 203 71zM63-129c60-2 137 13 137-47 0-61-80-42-137-45v92" id="z"/><path d="M-5 72V49h209v23H-5" id="A"/><path d="M140-251c81 0 123 46 123 126C263-46 219 4 140 4 59 4 17-45 17-125s42-126 123-126zm0 227c63 0 89-41 89-101s-29-99-89-99c-61 0-89 39-89 99S79-25 140-24" id="B"/><path d="M63-220v92h138v28H63V0H30v-248h175v28H63" id="C"/><path d="M33 0v-248h34V0H33" id="D"/><path d="M190 0L58-211 59 0H30v-248h39L202-35l-2-213h31V0h-41" id="E"/><g id="b"><use transform="matrix(0.05,0,0,0.05,0,0)" xlink:href="#x"/><use transform="matrix(0.05,0,0,0.05,12,0)" xlink:href="#y"/><use transform="matrix(0.05,0,0,0.05,28.950000000000003,0)" xlink:href="#z"/><use transform="matrix(0.05,0,0,0.05,41.9,0)" xlink:href="#A"/><use transform="matrix(0.05,0,0,0.05,51.900000000000006,0)" xlink:href="#B"/><use transform="matrix(0.05,0,0,0.05,65.9,0)" xlink:href="#C"/><use transform="matrix(0.05,0,0,0.05,76.85000000000001,0)" xlink:href="#C"/><use transform="matrix(0.05,0,0,0.05,87.80000000000001,0)" xlink:href="#A"/><use transform="matrix(0.05,0,0,0.05,97.80000000000001,0)" xlink:href="#x"/><use transform="matrix(0.05,0,0,0.05,109.80000000000001,0)" xlink:href="#D"/><use transform="matrix(0.05,0,0,0.05,114.80000000000001,0)" xlink:href="#E"/></g><path d="M197 0v-115H63V0H30v-248h33v105h134v-105h34V0h-34" id="F"/><path d="M143 4C61 4 22-44 18-125c-5-107 100-154 193-111 17 8 29 25 37 43l-32 9c-13-25-37-40-76-40-61 0-88 39-88 99 0 61 29 100 91 101 35 0 62-11 79-27v-45h-74v-28h105v86C228-13 192 4 143 4" id="G"/><g id="c"><use transform="matrix(0.05,0,0,0.05,0,0)" xlink:href="#F"/><use transform="matrix(0.05,0,0,0.05,12.950000000000001,0)" xlink:href="#D"/><use transform="matrix(0.05,0,0,0.05,17.950000000000003,0)" xlink:href="#G"/><use transform="matrix(0.05,0,0,0.05,31.950000000000003,0)" xlink:href="#F"/></g><path d="M30 0v-248h187v28H63v79h144v27H63v87h162V0H30" id="H"/><path d="M114-163C36-179 61-72 57 0H25l-1-190h30c1 12-1 29 2 39 6-27 23-49 58-41v29" id="I"/><path d="M101-234c-31-9-42 10-38 44h38v23H63V0H32v-167H5v-23h27c-7-52 17-82 69-68v24" id="J"/><path d="M100-194c62-1 85 37 85 99 1 63-27 99-86 99S16-35 15-95c0-66 28-99 85-99zM99-20c44 1 53-31 53-75 0-43-8-75-51-75s-53 32-53 75 10 74 51 75" id="K"/><path d="M24 0v-261h32V0H24" id="L"/><path d="M177-190C167-65 218 103 67 71c-23-6-38-20-44-43l32-5c15 47 100 32 89-28v-30C133-14 115 1 83 1 29 1 15-40 15-95c0-56 16-97 71-98 29-1 48 16 59 35 1-10 0-23 2-32h30zM94-22c36 0 50-32 50-73 0-42-14-75-50-75-39 0-46 34-46 75s6 73 46 73" id="M"/><path d="M103-251c84 0 111 97 45 133-19 10-37 24-39 52H78c0-63 77-55 77-114 0-30-21-42-52-43-32 0-53 17-56 46l-32-2c7-45 34-72 88-72zM77 0v-35h34V0H77" id="N"/><g id="d"><use transform="matrix(0.05,0,0,0.05,0,0)" xlink:href="#H"/><use transform="matrix(0.05,0,0,0.05,12,0)" xlink:href="#I"/><use transform="matrix(0.05,0,0,0.05,17.95,0)" xlink:href="#J"/><use transform="matrix(0.05,0,0,0.05,22.95,0)" xlink:href="#K"/><use transform="matrix(0.05,0,0,0.05,32.95,0)" xlink:href="#L"/><use transform="matrix(0.05,0,0,0.05,36.900000000000006,0)" xlink:href="#M"/><use transform="matrix(0.05,0,0,0.05,46.900000000000006,0)" xlink:href="#N"/></g><path d="M240 0l2-218c-23 76-54 145-80 218h-23L58-218 59 0H30v-248h44l77 211c21-75 51-140 76-211h43V0h-30" id="O"/><path d="M135-143c-3-34-86-38-87 0 15 53 115 12 119 90S17 21 10-45l28-5c4 36 97 45 98 0-10-56-113-15-118-90-4-57 82-63 122-42 12 7 21 19 24 35" id="P"/><g id="e"><use transform="matrix(0.05,0,0,0.05,0,0)" xlink:href="#O"/><use transform="matrix(0.05,0,0,0.05,14.950000000000001,0)" xlink:href="#u"/><use transform="matrix(0.05,0,0,0.05,24.950000000000003,0)" xlink:href="#P"/><use transform="matrix(0.05,0,0,0.05,33.95,0)" xlink:href="#P"/><use transform="matrix(0.05,0,0,0.05,42.95,0)" xlink:href="#u"/><use transform="matrix(0.05,0,0,0.05,52.95,0)" xlink:href="#I"/><use transform="matrix(0.05,0,0,0.05,58.900000000000006,0)" xlink:href="#u"/></g><path d="M160-131c35 5 61 23 61 61C221 17 115-2 30 0v-248c76 3 177-17 177 60 0 33-19 50-47 57zm-97-11c50-1 110 9 110-42 0-47-63-36-110-37v79zm0 115c55-2 124 14 124-45 0-56-70-42-124-44v89" id="Q"/><path d="M141-36C126-15 110 5 73 4 37 3 15-17 15-53c-1-64 63-63 125-63 3-35-9-54-41-54-24 1-41 7-42 31l-33-3c5-37 33-52 76-52 45 0 72 20 72 64v82c-1 20 7 32 28 27v20c-31 9-61-2-59-35zM48-53c0 20 12 33 32 33 41-3 63-29 60-74-43 2-92-5-92 41" id="R"/><path d="M24-231v-30h32v30H24zM24 0v-190h32V0H24" id="S"/><path d="M115-194c55 1 70 41 70 98S169 2 115 4C84 4 66-9 55-30l1 105H24l-1-265h31l2 30c10-21 28-34 59-34zm-8 174c40 0 45-34 45-75s-6-73-45-74c-42 0-51 32-51 76 0 43 10 73 51 73" id="T"/><path d="M117-194c89-4 53 116 60 194h-32v-121c0-31-8-49-39-48C34-167 62-67 57 0H25l-1-190h30c1 10-1 24 2 32 11-22 29-35 61-36" id="U"/><path d="M84 4C-5 8 30-112 23-190h32v120c0 31 7 50 39 49 72-2 45-101 50-169h31l1 190h-30c-1-10 1-25-2-33-11 22-28 36-60 37" id="V"/><g id="f"><use transform="matrix(0.05,0,0,0.05,0,0)" xlink:href="#Q"/><use transform="matrix(0.05,0,0,0.05,12,0)" xlink:href="#R"/><use transform="matrix(0.05,0,0,0.05,22,0)" xlink:href="#v"/><use transform="matrix(0.05,0,0,0.05,27,0)" xlink:href="#v"/><use transform="matrix(0.05,0,0,0.05,32,0)" xlink:href="#u"/><use transform="matrix(0.05,0,0,0.05,42,0)" xlink:href="#I"/><use transform="matrix(0.05,0,0,0.05,47.95,0)" xlink:href="#S"/><use transform="matrix(0.05,0,0,0.05,51.900000000000006,0)" xlink:href="#u"/><use transform="matrix(0.05,0,0,0.05,61.900000000000006,0)" xlink:href="#P"/><use transform="matrix(0.05,0,0,0.05,70.9,0)" xlink:href="#T"/><use transform="matrix(0.05,0,0,0.05,80.9,0)" xlink:href="#R"/><use transform="matrix(0.05,0,0,0.05,90.9,0)" xlink:href="#U"/><use transform="matrix(0.05,0,0,0.05,100.9,0)" xlink:href="#U"/><use transform="matrix(0.05,0,0,0.05,110.9,0)" xlink:href="#V"/><use transform="matrix(0.05,0,0,0.05,120.9,0)" xlink:href="#U"/><use transform="matrix(0.05,0,0,0.05,130.9,0)" xlink:href="#M"/></g><path d="M137 0h-34L2-248h35l83 218 83-218h36" id="W"/><path d="M115-194c53 0 69 39 70 98 0 66-23 100-70 100C84 3 66-7 56-30L54 0H23l1-261h32v101c10-23 28-34 59-34zm-8 174c40 0 45-34 45-75 0-40-5-75-45-74-42 0-51 32-51 76 0 43 10 73 51 73" id="X"/><path d="M85-194c31 0 48 13 60 33l-1-100h32l1 261h-30c-2-10 0-23-3-31C134-8 116 4 85 4 32 4 16-35 15-94c0-66 23-100 70-100zm9 24c-40 0-46 34-46 75 0 40 6 74 45 74 42 0 51-32 51-76 0-42-9-74-50-73" id="Y"/><g id="g"><use transform="matrix(0.05,0,0,0.05,0,0)" xlink:href="#W"/><use transform="matrix(0.05,0,0,0.05,11,0)" xlink:href="#u"/><use transform="matrix(0.05,0,0,0.05,21,0)" xlink:href="#I"/><use transform="matrix(0.05,0,0,0.05,26.950000000000003,0)" xlink:href="#X"/><use transform="matrix(0.05,0,0,0.05,36.95,0)" xlink:href="#S"/><use transform="matrix(0.05,0,0,0.05,40.900000000000006,0)" xlink:href="#U"/><use transform="matrix(0.05,0,0,0.05,50.900000000000006,0)" xlink:href="#Y"/><use transform="matrix(0.05,0,0,0.05,60.900000000000006,0)" xlink:href="#u"/></g><path d="M210-169c-67 3-38 105-44 169h-31v-121c0-29-5-50-35-48C34-165 62-65 56 0H25l-1-190h30c1 10-1 24 2 32 10-44 99-50 107 0 11-21 27-35 58-36 85-2 47 119 55 194h-31v-121c0-29-5-49-35-48" id="Z"/><g id="h"><use transform="matrix(0.05,0,0,0.05,0,0)" xlink:href="#Z"/><use transform="matrix(0.05,0,0,0.05,14.950000000000001,0)" xlink:href="#S"/><use transform="matrix(0.05,0,0,0.05,18.900000000000002,0)" xlink:href="#v"/></g><path d="M30 0v-248h33v221h125V0H30" id="aa"/><path d="M205 0l-28-72H64L36 0H1l101-248h38L239 0h-34zm-38-99l-47-123c-12 45-31 82-46 123h93" id="ab"/><g id="i"><use transform="matrix(0.05,0,0,0.05,0,0)" xlink:href="#y"/><use transform="matrix(0.05,0,0,0.05,16.95,0)" xlink:href="#aa"/><use transform="matrix(0.05,0,0,0.05,26.950000000000003,0)" xlink:href="#ab"/><use transform="matrix(0.05,0,0,0.05,38.95,0)" xlink:href="#E"/></g><path d="M195 0l-74-108L45 0H8l94-129-87-119h37l69 98 67-98h37l-84 118L233 0h-38" id="ac"/><path d="M127-220V0H93v-220H8v-28h204v28h-85" id="ad"/><g id="j"><use transform="matrix(0.05,0,0,0.05,0,0)" xlink:href="#O"/><use transform="matrix(0.05,0,0,0.05,14.950000000000001,0)" xlink:href="#ab"/><use transform="matrix(0.05,0,0,0.05,26.950000000000003,0)" xlink:href="#ac"/><use transform="matrix(0.05,0,0,0.05,38.95,0)" xlink:href="#A"/><use transform="matrix(0.05,0,0,0.05,48.95,0)" xlink:href="#z"/><use transform="matrix(0.05,0,0,0.05,61.900000000000006,0)" xlink:href="#H"/><use transform="matrix(0.05,0,0,0.05,73.9,0)" xlink:href="#ad"/><use transform="matrix(0.05,0,0,0.05,84.85000000000001,0)" xlink:href="#z"/><use transform="matrix(0.05,0,0,0.05,97.80000000000001,0)" xlink:href="#D"/><use transform="matrix(0.05,0,0,0.05,102.80000000000001,0)" xlink:href="#H"/><use transform="matrix(0.05,0,0,0.05,114.80000000000001,0)" xlink:href="#t"/><use transform="matrix(0.05,0,0,0.05,126.80000000000001,0)" xlink:href="#N"/></g><g id="k"><use transform="matrix(0.05,0,0,0.05,0,0)" xlink:href="#E"/><use transform="matrix(0.05,0,0,0.05,12.950000000000001,0)" xlink:href="#H"/><use transform="matrix(0.05,0,0,0.05,24.950000000000003,0)" xlink:href="#D"/><use transform="matrix(0.05,0,0,0.05,29.950000000000003,0)" xlink:href="#E"/></g><path d="M206 0h-36l-40-164L89 0H53L-1-190h32L70-26l43-164h34l41 164 42-164h31" id="ae"/><g id="l"><use transform="matrix(0.05,0,0,0.05,0,0)" xlink:href="#F"/><use transform="matrix(0.05,0,0,0.05,12.950000000000001,0)" xlink:href="#R"/><use transform="matrix(0.05,0,0,0.05,22.950000000000003,0)" xlink:href="#I"/><use transform="matrix(0.05,0,0,0.05,28.900000000000002,0)" xlink:href="#Y"/><use transform="matrix(0.05,0,0,0.05,38.900000000000006,0)" xlink:href="#ae"/><use transform="matrix(0.05,0,0,0.05,51.85,0)" xlink:href="#R"/><use transform="matrix(0.05,0,0,0.05,61.85,0)" xlink:href="#I"/><use transform="matrix(0.05,0,0,0.05,67.80000000000001,0)" xlink:href="#u"/></g><path d="M106-169C34-169 62-67 57 0H25v-261h32l-1 103c12-21 28-36 61-36 89 0 53 116 60 194h-32v-121c2-32-8-49-39-48" id="af"/><g id="m"><use transform="matrix(0.05,0,0,0.05,0,0)" xlink:href="#t"/><use transform="matrix(0.05,0,0,0.05,12,0)" xlink:href="#af"/><use transform="matrix(0.05,0,0,0.05,22,0)" xlink:href="#V"/><use transform="matrix(0.05,0,0,0.05,32,0)" xlink:href="#v"/><use transform="matrix(0.05,0,0,0.05,37,0)" xlink:href="#Y"/><use transform="matrix(0.05,0,0,0.05,47,0)" xlink:href="#K"/><use transform="matrix(0.05,0,0,0.05,57,0)" xlink:href="#ae"/><use transform="matrix(0.05,0,0,0.05,69.95,0)" xlink:href="#U"/></g><g id="n"><use transform="matrix(0.05,0,0,0.05,0,0)" xlink:href="#t"/><use transform="matrix(0.05,0,0,0.05,12,0)" xlink:href="#K"/><use transform="matrix(0.05,0,0,0.05,22,0)" xlink:href="#J"/><use transform="matrix(0.05,0,0,0.05,27,0)" xlink:href="#v"/><use transform="matrix(0.05,0,0,0.05,32,0)" xlink:href="#ae"/><use transform="matrix(0.05,0,0,0.05,44.95,0)" xlink:href="#R"/><use transform="matrix(0.05,0,0,0.05,54.95,0)" xlink:href="#I"/><use transform="matrix(0.05,0,0,0.05,60.900000000000006,0)" xlink:href="#u"/></g><path d="M153-248C145-148 188 4 80 4 36 3 13-21 6-62l32-5c4 25 16 42 43 43 27 0 39-20 39-49v-147H72v-28h81" id="ag"/><g id="o"><use transform="matrix(0.05,0,0,0.05,0,0)" xlink:href="#ag"/><use transform="matrix(0.05,0,0,0.05,9,0)" xlink:href="#ab"/></g><path d="M140-251c81 0 123 46 123 126C263-53 228-8 163 1c7 30 30 48 69 40v23c-55 16-95-15-103-61C56-3 17-48 17-125c0-80 42-126 123-126zm0 227c63 0 89-41 89-101s-29-99-89-99c-61 0-89 39-89 99S79-25 140-24" id="ah"/><g id="p"><use transform="matrix(0.05,0,0,0.05,0,0)" xlink:href="#O"/><use transform="matrix(0.05,0,0,0.05,14.950000000000001,0)" xlink:href="#ah"/><use transform="matrix(0.05,0,0,0.05,28.950000000000003,0)" xlink:href="#ad"/><use transform="matrix(0.05,0,0,0.05,39.900000000000006,0)" xlink:href="#ad"/></g><path d="M143 0L79-87 56-68V0H24v-261h32v163l83-92h37l-77 82L181 0h-38" id="ai"/><g id="q"><use transform="matrix(0.05,0,0,0.05,0,0)" xlink:href="#Q"/><use transform="matrix(0.05,0,0,0.05,12,0)" xlink:href="#I"/><use transform="matrix(0.05,0,0,0.05,17.95,0)" xlink:href="#K"/><use transform="matrix(0.05,0,0,0.05,27.950000000000003,0)" xlink:href="#ai"/><use transform="matrix(0.05,0,0,0.05,36.95,0)" xlink:href="#u"/><use transform="matrix(0.05,0,0,0.05,46.95,0)" xlink:href="#I"/></g><g id="r"><use transform="matrix(0.05,0,0,0.05,0,0)" xlink:href="#W"/><use transform="matrix(0.05,0,0,0.05,11,0)" xlink:href="#u"/><use transform="matrix(0.05,0,0,0.05,21,0)" xlink:href="#I"/><use transform="matrix(0.05,0,0,0.05,26.950000000000003,0)" xlink:href="#P"/><use transform="matrix(0.05,0,0,0.05,35.95,0)" xlink:href="#u"/><use transform="matrix(0.05,0,0,0.05,45.95,0)" xlink:href="#U"/><use transform="matrix(0.05,0,0,0.05,55.95,0)" xlink:href="#Y"/><use transform="matrix(0.05,0,0,0.05,65.95,0)" xlink:href="#u"/></g><path d="M179-190L93 31C79 59 56 82 12 73V49c39 6 53-20 64-50L1-190h34L92-34l54-156h33" id="aj"/><g id="s"><use transform="matrix(0.05,0,0,0.05,0,0)" xlink:href="#x"/><use transform="matrix(0.05,0,0,0.05,12,0)" xlink:href="#R"/><use transform="matrix(0.05,0,0,0.05,22,0)" xlink:href="#aj"/><use transform="matrix(0.05,0,0,0.05,31,0)" xlink:href="#L"/><use transform="matrix(0.05,0,0,0.05,34.95,0)" xlink:href="#K"/><use transform="matrix(0.05,0,0,0.05,44.95,0)" xlink:href="#R"/><use transform="matrix(0.05,0,0,0.05,54.95,0)" xlink:href="#Y"/></g></defs></g></svg>